<svg width="47" height="46" viewBox="0 0 47 46" fill="none" xmlns="http://www.w3.org/2000/svg">
<path d="M35.43 33.3494C34.5231 35.4963 33.166 37.4236 31.4505 39.0012C29.735 40.5788 27.701 41.7699 25.4857 42.4941C23.2705 43.2183 20.9256 43.4587 18.6095 43.1992C16.2934 42.9396 14.06 42.186 12.06 40.9894L3 43.3894L5.56 33.7094C4.00748 30.3117 3.67297 26.4829 4.61279 22.8675C5.55262 19.2521 7.70938 16.0709 10.72 13.8594" stroke="#6b51cc" stroke-width="5" stroke-linecap="round" stroke-linejoin="round"/>
<path d="M44.4286 35.7492L41.8687 26.0692C43.4795 22.5138 43.7635 18.499 42.6693 14.7523C41.5751 11.0055 39.175 7.77467 35.904 5.64498C32.6329 3.5153 28.7072 2.62766 24.8381 3.14297C20.969 3.65828 17.4125 5.54242 14.8129 8.45401C12.2133 11.3656 10.7425 15.112 10.6671 19.0146C10.5917 22.9171 11.9166 26.7175 14.4018 29.7274C16.887 32.7372 20.3681 34.7573 24.2144 35.4217C28.0607 36.0861 32.0178 35.3509 35.3687 33.3491L44.4286 35.7492Z" stroke="#6b51cc" stroke-width="5" stroke-linecap="round" stroke-linejoin="round"/>
<path d="M22.2392 14.1795C22.522 13.5705 22.9557 13.0438 23.4992 12.6495C24.0666 12.2348 24.7081 11.9328 25.3892 11.7596C26.1186 11.5571 26.8723 11.4562 27.6292 11.4595C28.6053 11.4483 29.5749 11.6178 30.4892 11.9595C31.2808 12.2717 31.9722 12.7937 32.4892 13.4695C33.021 14.1957 33.2923 15.0801 33.2592 15.9795C33.2807 16.58 33.1573 17.1769 32.8992 17.7195C32.6849 18.1572 32.3818 18.5454 32.0092 18.8595C31.6522 19.1514 31.2782 19.4218 30.8892 19.6695C30.4292 19.9495 30.0592 20.1895 29.7792 20.3995C29.5177 20.5765 29.3018 20.813 29.1492 21.0895L29.0192 21.3395C29.0192 21.7395 28.9592 22.1695 28.9592 22.3395C28.9592 22.5095 28.0992 22.5895 27.0492 22.5895C26.4009 22.6401 25.7487 22.5827 25.1192 22.4195C25.1192 22.3395 25.1192 21.7395 25.0392 21.0895L25.1492 20.5995C25.2565 20.1193 25.4681 19.6686 25.7692 19.2795C26.1055 18.8685 26.5202 18.5286 26.9892 18.2795C27.4529 18.0248 27.8916 17.7268 28.2992 17.3896C28.5527 17.1507 28.719 16.8338 28.7716 16.4895C28.8241 16.1451 28.76 15.7932 28.5892 15.4895C28.4503 15.2898 28.2604 15.1309 28.0392 15.0295C27.809 14.9291 27.5604 14.8781 27.3092 14.8796C27.0997 14.8759 26.8918 14.9168 26.6992 14.9995C26.5208 15.0803 26.3606 15.1964 26.2282 15.3407C26.0959 15.4851 25.9942 15.6548 25.9292 15.8395L25.8692 16.0295C25.8692 16.2695 24.9292 16.4695 23.8692 16.4695C23.6374 16.4943 23.403 16.4722 23.1799 16.4046C22.9568 16.337 22.7495 16.2253 22.5704 16.0761C22.3913 15.9268 22.2441 15.7431 22.1374 15.5359C22.0306 15.3286 21.9667 15.102 21.9492 14.8695L22.2392 14.1795ZM25.3092 24.1795C25.8524 23.7822 26.5176 23.5876 27.1892 23.6296C27.8638 23.5894 28.5315 23.7837 29.0792 24.1795C29.2999 24.3585 29.4762 24.5862 29.5941 24.8447C29.7121 25.1032 29.7686 25.3855 29.7592 25.6695C29.7686 25.9521 29.7121 26.2329 29.594 26.4898C29.476 26.7467 29.2997 26.9726 29.0792 27.1495C28.5186 27.5153 27.8636 27.71 27.1942 27.71C26.5248 27.71 25.8699 27.5153 25.3092 27.1495C25.0869 26.9742 24.9093 26.7486 24.7911 26.4914C24.6729 26.2341 24.6175 25.9524 24.6292 25.6695C24.6238 25.3919 24.6822 25.1166 24.8001 24.8652C24.9181 24.6138 25.0922 24.3928 25.3092 24.2195V24.1795Z" fill="#6b51cc"/>
</svg>
