<svg width="53" height="46" viewBox="0 0 53 46" fill="none" xmlns="http://www.w3.org/2000/svg">
<path d="M45.11 32.4902H17.39L11.5 7.49023H50L45.11 32.4902Z" stroke="#6b51cc" stroke-width="5" stroke-linecap="round" stroke-linejoin="round"/>
<path d="M23.5 42.9902C24.3284 42.9902 25 42.3187 25 41.4902C25 40.6618 24.3284 39.9902 23.5 39.9902C22.6716 39.9902 22 40.6618 22 41.4902C22 42.3187 22.6716 42.9902 23.5 42.9902Z" stroke="#6b51cc" stroke-width="5" stroke-linecap="round" stroke-linejoin="round"/>
<path d="M38.5 42.9902C39.3284 42.9902 40 42.3187 40 41.4902C40 40.6618 39.3284 39.9902 38.5 39.9902C37.6716 39.9902 37 40.6618 37 41.4902C37 42.3187 37.6716 42.9902 38.5 42.9902Z" stroke="#6b51cc" stroke-width="5" stroke-linecap="round" stroke-linejoin="round"/>
<path d="M47 19.9902H33" stroke="#6b51cc" stroke-width="5" stroke-linecap="round" stroke-linejoin="round"/>
<path d="M11.56 7.66998L8.99002 5.10999C7.75155 3.86828 6.0921 3.13671 4.34003 3.06L3 3" stroke="#6b51cc" stroke-width="5" stroke-linecap="round" stroke-linejoin="round"/>
</svg>
