<svg width="44" height="44" viewBox="0 0 44 44" fill="none" xmlns="http://www.w3.org/2000/svg">
<path d="M41 3H3V41H41V3Z" stroke="#6b51cc" stroke-width="5" stroke-linecap="round" stroke-linejoin="round"/>
<path d="M27.7397 28.38L25.4197 31.33C25.3624 31.3974 25.2912 31.4516 25.2109 31.4888C25.1306 31.5259 25.0432 31.5452 24.9547 31.5452C24.8662 31.5452 24.7788 31.5259 24.6985 31.4888C24.6182 31.4516 24.547 31.3974 24.4897 31.33L19.2097 24.63C19.0145 24.3933 18.7695 24.2026 18.492 24.0718C18.2145 23.9409 17.9115 23.873 17.6047 23.873C17.2979 23.873 16.9949 23.9409 16.7174 24.0718C16.4399 24.2026 16.1948 24.3933 15.9997 24.63L9.76971 32.53C9.54741 32.8144 9.41262 33.1571 9.3818 33.5167C9.35097 33.8763 9.42544 34.2372 9.59611 34.5552C9.76677 34.8732 10.0263 35.1346 10.343 35.3077C10.6597 35.4808 11.0199 35.5581 11.3797 35.53H32.6197C32.9795 35.5581 33.3397 35.4808 33.6564 35.3077C33.9731 35.1346 34.2326 34.8732 34.4033 34.5552C34.574 34.2372 34.6484 33.8763 34.6176 33.5167C34.5868 33.1571 34.452 32.8144 34.2297 32.53L30.9497 28.38C30.7546 28.1433 30.5095 27.9526 30.232 27.8218C29.9545 27.6909 29.6515 27.623 29.3447 27.623C29.0379 27.623 28.7349 27.6909 28.4574 27.8218C28.1799 27.9526 27.9348 28.1433 27.7397 28.38V28.38Z" fill="#6b51cc"/>
<path d="M29.5586 17.5C31.2154 17.5 32.5586 16.1569 32.5586 14.5C32.5586 12.8431 31.2154 11.5 29.5586 11.5C27.9017 11.5 26.5586 12.8431 26.5586 14.5C26.5586 16.1569 27.9017 17.5 29.5586 17.5Z" fill="#6b51cc"/>
</svg>
